:SAMPLES-PER-SECOND 30
:FULLY-SPECIFIED
:DEGREES
18
root  -29.8957 36.5575 -1.16919 85.4371 84.5163 89.8024
RightUpLeg  -28.3135 5.01923 -4.15104
RightLeg  101.485 11.0823 0.392645
RightFoot  -2.17181 0.122776 -1.27985
RightToes  -9.02219e-009 -1.59028e-015 9.93923e-017
Spine  1.24829 -1.45115 -8.35728
Spine1  14.3973 -3.04002 -2.23002
HEad  -12.7682 3.00997 2.63121
LeftShoulder1  9.93923e-017 0 1.22299e-017
LeftArm  4.58511 37.3226 -80.1019
LeftForeArm  -36.8436 -38.1952 24.0072
LeftHand  0.919815 6.39697 -5.01834
RightShoulder  1.98785e-016 -4.96962e-017 1.55301e-017
RightArm  27.3314 -47.9327 82.5341
RightForeArm  -36.7872 18.0898 -11.3937
RightHand  1.43957 -12.7213 -4.68288
LeftUpLeg  -16.6948 -2.11161 -10.9663
LeftLeg  40.4119 -5.35881 5.2394
LeftFoot  -15.5964 0.0238339 3.70992
LeftToes  7.69435e-010 2.06924e-010 1.0715e-010
19
root  -27.2539 37.5571 -1.14021 121.529 85.3495 125.809
RightUpLeg  -31.4433 3.5197 -2.28429
RightLeg  89.9335 11.0315 -2.35229
RightFoot  -3.10987 0.0828957 -0.932165
RightToes  -9.02219e-009 -1.59028e-015 9.93923e-017
Spine  0.492864 -3.30251 -7.9757
Spine1  14.2356 -5.35347 0.318315
HEad  -12.8954 3.76093 2.25792
LeftShoulder1  9.93923e-017 0 1.22299e-017
LeftArm  1.20927 30.8235 -79.7601
LeftForeArm  -32.048 -50.762 31.8687
LeftHand  1.02817 7.51368 -8.60706
RightShoulder  1.98785e-016 -4.96962e-017 1.55301e-017
RightArm  16.5966 -54.0425 74.0771
RightForeArm  -19.605 15.6455 -0.995469
RightHand  1.30976 -12.8145 -2.20541
LeftUpLeg  -9.88582 -4.54457 -8.91175
LeftLeg  35.6924 -5.61523 3.93377
LeftFoot  -14.4626 -0.0237622 2.09118
LeftToes  7.69435e-010 2.06924e-010 1.0715e-010
20
root  -24.6607 38.5204 -1.1083 160.573 84.7864 164.428
RightUpLeg  -32.6243 1.539 -0.00102498
RightLeg  74.8695 9.56783 -4.95475
RightFoot  -3.84071 0.00625699 -0.0626741
RightToes  -9.02219e-009 -1.59028e-015 9.93923e-017
Spine  -0.687021 -4.66211 -5.57662
Spine1  13.9626 -6.67344 1.58794
HEad  -12.741 3.48835 2.40608
LeftShoulder1  9.93923e-017 0 1.22299e-017
LeftArm  2.16293 23.6966 -79.3801
LeftForeArm  -34.3568 -59.3996 41.6757
LeftHand  1.0853 8.2709 -7.72556
RightShoulder  1.98785e-016 -4.96962e-017 1.55301e-017
RightArm  24.19 -62.7043 62.8608
RightForeArm  -21.8633 16.2133 -2.9018
RightHand  1.30075 -13.1072 -1.48112
LeftUpLeg  -3.54979 -6.77391 -5.98813
LeftLeg  30.0183 -5.73313 2.7133
LeftFoot  -11.695 -0.0264068 -0.346718
LeftToes  7.69435e-010 2.06924e-010 1.0715e-010
21
root  -22.1131 39.2349 -1.03886 -176.794 83.2417 -174.093
RightUpLeg  -32.6055 -0.52564 2.01642
RightLeg  57.3881 7.15573 -5.58211
RightFoot  -3.24843 -0.0740886 0.855861
RightToes  -9.02219e-009 -1.59028e-015 9.93923e-017
Spine  -2.31972 -5.72509 -3.58737
Spine1  13.1254 -7.65157 2.98408
HEad  -11.5438 3.21073 2.56143
LeftShoulder1  9.93923e-017 0 1.22299e-017
LeftArm  2.72966 18.0391 -79.0161
LeftForeArm  -43.4426 -65.4283 52.7147
LeftHand  1.09695 8.08694 -4.4011
RightShoulder  1.98785e-016 -4.96962e-017 1.55301e-017
RightArm  50.0768 -70.0815 44.6394
RightForeArm  -35.6644 18.8401 -9.47376
RightHand  1.27265 -12.9044 -1.37964
LeftUpLeg  1.51027 -7.51584 -3.21968
LeftLeg  24.0887 -6.29266 1.687
LeftFoot  -7.01512 0.125973 -2.59078
LeftToes  7.69435e-010 2.06924e-010 1.0715e-010
